<svg xmlns="http://www.w3.org/2000/svg" viewBox="0 0 32 32" shape-rendering="crispEdges">
  <rect x="0" y="0" width="32" height="32" rx="6" ry="6" fill="#cae9ff" shape-rendering="geometricPrecision"/>

  <!-- Näsinneula -->
  <g fill="#1b4965">
    <rect x="10" y="3" width="1" height="1"/>
    <rect x="9" y="4" width="3" height="1"/>
    <rect x="7" y="5" width="7" height="1"/>
    <rect x="6" y="6" width="9" height="3"/>
    <rect x="7" y="9" width="7" height="1"/>
    <rect x="9" y="10" width="3" height="6"/>
    <rect x="8" y="16" width="5" height="2"/>
    <rect x="9" y="18" width="3" height="5"/>
    <rect x="7" y="23" width="7" height="2"/>
    <rect x="6" y="25" width="9" height="4"/>
  </g>
  <g fill="#219ebc">
    <rect x="8" y="7" width="5" height="1"/>
    <rect x="8" y="17" width="1" height="1"/>
    <rect x="11" y="26" width="2" height="1"/>
  </g>

  <!-- Kaljatuoppi (edessä) -->
  <g fill="#fff8e7">
    <rect x="16" y="13" width="6" height="1"/>
    <rect x="15" y="14" width="8" height="1"/>
    <rect x="15" y="15" width="9" height="2"/>
  </g>
  <g fill="#ffffff">
    <rect x="16" y="14" width="2" height="1"/>
    <rect x="20" y="15" width="2" height="1"/>
  </g>
  <g fill="#ffb703">
    <rect x="16" y="17" width="2" height="8"/>
    <rect x="16" y="17" width="7" height="2"/>
  </g>
  <g fill="#fb8500">
    <rect x="18" y="19" width="5" height="6"/>
  </g>
  <g fill="#e85d04">
    <rect x="21" y="19" width="2" height="6"/>
    <rect x="18" y="23" width="5" height="2"/>
  </g>
  <g fill="#1b6b8a">
    <rect x="14" y="16" width="2" height="11"/>
    <rect x="23" y="16" width="2" height="11"/>
    <rect x="14" y="26" width="11" height="2"/>
    <rect x="15" y="16" width="9" height="1"/>
  </g>
  <rect x="15" y="17" width="1" height="8" fill="#219ebc"/>
  <g fill="#1b6b8a">
    <rect x="25" y="18" width="2" height="2"/>
    <rect x="26" y="18" width="2" height="2"/>
    <rect x="27" y="20" width="1" height="4"/>
    <rect x="26" y="24" width="2" height="2"/>
    <rect x="25" y="24" width="2" height="2"/>
  </g>
  <rect x="26" y="20" width="1" height="4" fill="#219ebc"/>
</svg>
