<svg xmlns="http://www.w3.org/2000/svg" viewBox="0 0 32 32" shape-rendering="crispEdges">
  <!-- Näsinneula (tausta) -->
  <g fill="#1b4965">
    <rect x="7" y="1" width="1" height="1"/>
    <rect x="6" y="2" width="3" height="1"/>
    <rect x="4" y="3" width="7" height="1"/>
    <rect x="3" y="4" width="9" height="3"/>
    <rect x="4" y="7" width="7" height="1"/>
    <rect x="6" y="8" width="3" height="6"/>
    <rect x="5" y="14" width="5" height="2"/>
    <rect x="6" y="16" width="3" height="5"/>
    <rect x="4" y="21" width="7" height="2"/>
    <rect x="3" y="23" width="9" height="4"/>
  </g>
  <g fill="#219ebc">
    <rect x="5" y="5" width="5" height="1"/>
    <rect x="5" y="15" width="1" height="1"/>
    <rect x="8" y="24" width="2" height="1"/>
  </g>

  <!-- Kaljatuoppi (edessä) -->
  <g fill="#fff8e7">
    <rect x="19" y="11" width="6" height="1"/>
    <rect x="18" y="12" width="8" height="1"/>
    <rect x="18" y="13" width="9" height="2"/>
  </g>
  <g fill="#ffffff">
    <rect x="19" y="12" width="2" height="1"/>
    <rect x="23" y="13" width="2" height="1"/>
  </g>
  <g fill="#ffb703">
    <rect x="19" y="15" width="2" height="8"/>
    <rect x="19" y="15" width="7" height="2"/>
  </g>
  <g fill="#fb8500">
    <rect x="21" y="17" width="5" height="6"/>
  </g>
  <g fill="#e85d04">
    <rect x="24" y="17" width="2" height="6"/>
    <rect x="21" y="21" width="5" height="2"/>
  </g>
  <g fill="#1b6b8a">
    <rect x="17" y="14" width="2" height="11"/>
    <rect x="26" y="14" width="2" height="11"/>
    <rect x="17" y="24" width="11" height="2"/>
    <rect x="18" y="14" width="9" height="1"/>
  </g>
  <rect x="18" y="15" width="1" height="8" fill="#219ebc"/>
  <g fill="#1b6b8a">
    <rect x="28" y="16" width="2" height="2"/>
    <rect x="29" y="16" width="2" height="2"/>
    <rect x="30" y="18" width="1" height="4"/>
    <rect x="29" y="22" width="2" height="2"/>
    <rect x="28" y="22" width="2" height="2"/>
  </g>
  <rect x="29" y="18" width="1" height="4" fill="#219ebc"/>
</svg>
