<svg xmlns="http://www.w3.org/2000/svg" viewBox="0 0 32 32" shape-rendering="crispEdges">
  <rect width="32" height="32" fill="#5ec2e8"/>
  <rect x="2" y="2" width="28" height="28" fill="#1b6b8a"/>
  <rect x="4" y="4" width="24" height="24" fill="#5ec2e8"/>

  <!-- vaahto -->
  <g fill="#fff8e7">
    <rect x="10" y="8" width="10" height="1"/>
    <rect x="9" y="9" width="12" height="1"/>
    <rect x="9" y="10" width="13" height="2"/>
  </g>
  <g fill="#ffffff">
    <rect x="10" y="9" width="2" height="1"/>
    <rect x="14" y="10" width="2" height="1"/>
    <rect x="18" y="9" width="2" height="1"/>
  </g>

  <!-- kalja -->
  <g fill="#ffb703">
    <rect x="11" y="12" width="2" height="10"/>
    <rect x="11" y="12" width="9" height="2"/>
  </g>
  <g fill="#fb8500">
    <rect x="13" y="14" width="7" height="8"/>
  </g>
  <g fill="#e85d04">
    <rect x="18" y="14" width="2" height="8"/>
    <rect x="13" y="20" width="7" height="2"/>
  </g>

  <!-- tuoppi -->
  <g fill="#1b6b8a">
    <rect x="8" y="11" width="2" height="14"/>
    <rect x="21" y="11" width="2" height="14"/>
    <rect x="8" y="24" width="15" height="2"/>
    <rect x="10" y="11" width="11" height="1"/>
  </g>
  <rect x="9" y="12" width="1" height="11" fill="#219ebc"/>

  <!-- kahva -->
  <g fill="#1b6b8a">
    <rect x="23" y="13" width="2" height="2"/>
    <rect x="25" y="13" width="3" height="2"/>
    <rect x="27" y="15" width="2" height="6"/>
    <rect x="25" y="21" width="3" height="2"/>
    <rect x="23" y="21" width="2" height="2"/>
  </g>
  <rect x="25" y="15" width="2" height="6" fill="#219ebc"/>

  <!-- kulma-aksentit -->
  <rect x="5" y="5" width="2" height="2" fill="#ffb703"/>
  <rect x="25" y="5" width="2" height="2" fill="#ffb703"/>
  <rect x="5" y="25" width="2" height="2" fill="#ffb703"/>
  <rect x="25" y="25" width="2" height="2" fill="#ffb703"/>
</svg>
